<!-- Example svg for reference -->

      <svg version="1.1" width="550" height="375" viewBox="0 0 256 256" xmlns="http://www.w3.org/2000/svg">
      <svg version="1.0" xmlns="http://www.w3.org/2000/svg"
 width="105" height="105" viewBox="0 0 256 256" text-anchor="middle" x="128" y="80">
<g transform="translate(0.00,111.00) scale(0.10,-0.10)"
fill="#000000" stroke="none">
<path d="M555 1003 c-9 -9 -28 -33 -41 -54 l-24 -38 -46 19 c-86 37 -111 25
-121 -59 -5 -44 -10 -54 -34 -66 -15 -8 -36 -15 -47 -15 -24 0 -42 -19 -42
-46 0 -32 85 -121 144 -151 50 -25 56 -26 251 -26 219 0 229 2 299 64 85 74
96 140 28 158 -61 17 -71 30 -78 99 l-7 64 -36 -6 c-20 -3 -54 -8 -75 -12 -37
-6 -41 -4 -81 40 -46 49 -64 55 -90 29z m63 -92 c30 -53 29 -140 -1 -200 -12
-24 -26 -45 -31 -45 -12 -1 -40 50 -50 88 -15 60 21 196 52 196 5 0 18 -17 30
-39z m-180 -39 c34 -26 79 -192 53 -192 -38 0 -111 111 -111 168 0 46 19 54
58 24z m352 -2 c19 -36 -10 -109 -68 -168 -17 -18 -45 -7 -38 15 2 10 8 42 11
70 11 85 68 134 95 83z m-428 -143 c31 -25 88 -96 88 -108 0 -18 -37 -8 -81
20 -59 37 -99 76 -99 96 0 24 60 19 92 -8z m538 1 c0 -26 -42 -63 -107 -97
-71 -36 -81 -26 -33 34 62 78 140 112 140 63z"/>
<path d="M374 495 c-55 -6 -107 -16 -115 -20 -39 -24 -93 -73 -105 -97 -20
-39 -20 -216 1 -224 8 -3 50 8 94 25 61 24 96 31 148 31 103 0 293 20 338 35
121 40 253 100 283 128 29 27 28 67 -3 101 -31 33 -48 32 -170 -9 l-99 -33
-32 28 c-28 24 -44 29 -111 35 -43 3 -89 8 -103 9 -14 2 -70 -2 -126 -9z m287
-62 c24 -24 -8 -43 -75 -44 -79 0 -138 -11 -143 -25 -5 -16 117 -38 159 -29
18 4 92 27 163 50 187 62 202 65 215 51 14 -18 -10 -38 -102 -80 -126 -60
-222 -86 -313 -86 -132 -1 -279 -18 -319 -37 -49 -23 -59 -9 -52 70 5 67 24
94 90 127 37 19 55 21 203 18 110 -2 166 -7 174 -15z"/>
</g>
</svg>
       <text font-family="Koldby" text-anchor="middle" x="150" y="150" font-size="3.5rem">
        Healing Hands</text>
             <text font-variant='small' font-size="1.6rem" font-family="cursive" text-anchor="middle" x="136" y="188">
        Massage Therapy
            </text>
        </svg> 